<svg width="543" height="496" viewBox="0 0 543 496" fill="none" xmlns="http://www.w3.org/2000/svg">
<path d="M379.795 134.393C317.466 97.6671 250.504 93.887 224.08 121.705C209.843 137.506 195.154 151.382 195.154 151.382C195.154 151.382 180.24 148.695 169.728 143.588C159.216 138.48 137.674 123.145 120.61 113.899C105.884 105.846 61.4529 104.317 68.3321 160.643C77.2864 235.025 187.631 283.183 187.631 283.183C187.631 283.183 425.87 368.632 435.441 360.206C445.012 351.78 478.202 334.011 472.559 273.264C467.504 231.483 442.125 171.119 379.795 134.393Z" fill="#FFE9BD"/>
<path d="M171.244 23.6549C187.67 23.8065 200.99 42.1889 200.97 64.6779C200.95 87.1668 187.597 105.303 171.171 105.151C154.744 105 141.424 86.6173 141.444 64.1284C141.464 41.6394 154.817 23.5033 171.244 23.6549Z" fill="#FFE9BD"/>
<path d="M489.905 337.385C503.535 337.511 514.588 352.764 514.572 371.425C514.555 390.086 503.475 405.134 489.845 405.009C476.215 404.883 465.162 389.63 465.179 370.969C465.195 352.308 476.275 337.26 489.905 337.385Z" fill="#FFE9BD"/>
<path d="M540.77 458.194C540.761 468.453 443.124 484.26 276.584 492.667C234.598 494.786 1.41847 459.187 1.42375 453.499C1.43326 443.239 122.178 435.974 271.114 437.271C420.051 438.567 540.78 447.935 540.77 458.194Z" fill="#E1E4ED"/>
<path d="M429.499 364.292L429.479 386.981C429.475 391.984 426.463 396.015 422.753 395.981L118.715 393.26C118.537 393.258 118.355 393.25 118.181 393.23L118.177 393.23C118.004 393.209 117.831 393.182 117.662 393.143C117.471 393.103 117.284 393.051 117.101 392.993C116.914 392.935 116.732 392.863 116.554 392.78C116.189 392.619 115.848 392.42 115.516 392.19C114.197 391.263 113.123 389.802 112.446 388.017C112.278 387.568 112.133 387.106 112.017 386.612C111.961 386.372 111.905 386.126 111.863 385.873C111.822 385.627 111.784 385.374 111.756 385.115C111.728 384.887 111.71 384.654 111.696 384.42L111.696 384.414C111.682 384.18 111.678 383.935 111.678 383.695L111.698 361.447L125.215 339.087L129.914 331.305L411.337 334.394L416.868 343.111L429.499 364.292Z" fill="#8087C6"/>
<g style="mix-blend-mode:overlay">
<path d="M202.408 331.916C195.706 334.784 188.562 336.519 181.519 336.692C155.269 337.336 151.463 340.729 131.171 347.973C117.316 352.919 125.299 339.06 125.299 339.06L129.999 331.259L202.408 331.916Z" fill="#2C2C2C"/>
</g>
<g style="mix-blend-mode:overlay">
<path d="M313.46 332.229C320.158 335.236 327.312 336.758 334.345 337.413C347.756 338.667 361.253 337.161 374.636 338.904C388.018 340.649 401.776 346.137 411.353 359.026C413.914 362.466 416.148 366.406 419.042 369.314C421.941 372.223 425.772 374.007 429.152 372.389C429.381 372.277 429.611 372.152 429.831 372.008L429.838 363.844L416.357 341.052L411.67 333.119L313.46 332.229Z" fill="#2C2C2C"/>
</g>
<path d="M180.404 164.03C179.91 164.953 176.487 173.745 168.68 175.076C162.857 176.069 156.962 186.089 156.962 186.089C156.962 186.089 152.733 176.083 156.102 165.77L160.3 162.36L157.783 161.194C157.783 161.194 176.51 147.031 180.404 164.03Z" fill="#506EB1"/>
<path d="M180.391 164.044C179.897 164.966 176.475 173.752 168.671 175.083C162.85 176.075 156.957 186.088 156.957 186.088C156.957 186.088 157.837 170.153 168.991 164.465C174.224 161.793 177.93 162.52 180.391 164.044Z" fill="#222222"/>
<path d="M190.35 196.129C190.247 194.675 190.086 193.136 189.905 191.642C189.721 190.14 189.509 188.641 189.264 187.154C188.775 184.179 188.165 181.241 187.385 178.4C186.603 175.564 185.647 172.815 184.409 170.348C183.175 167.895 181.616 165.721 179.694 164.442C179.214 164.13 178.717 163.867 178.206 163.665C177.692 163.477 177.167 163.336 176.634 163.267C176.096 163.206 175.571 163.189 175.012 163.237C174.458 163.273 173.906 163.337 173.356 163.434C171.158 163.809 168.999 164.671 167.021 166.067C165.041 167.453 163.253 169.364 161.75 171.642C160.998 172.78 160.314 174.008 159.708 175.307C159.106 176.609 158.564 177.972 158.157 179.418C158.515 177.947 159.012 176.544 159.575 175.196C160.141 173.849 160.789 172.565 161.513 171.362C162.959 168.954 164.723 166.877 166.721 165.316C168.715 163.743 170.934 162.701 173.213 162.166C173.783 162.029 174.356 161.926 174.933 161.853C175.502 161.766 176.113 161.745 176.706 161.778C177.304 161.819 177.9 161.942 178.489 162.12C179.075 162.313 179.649 162.577 180.205 162.899C180.759 163.23 181.289 163.626 181.798 164.067C182.304 164.513 182.78 165.014 183.236 165.544C184.141 166.616 184.94 167.83 185.654 169.117C187.076 171.7 188.175 174.549 189.091 177.471C190.003 180.398 190.734 183.411 191.34 186.463C191.643 187.99 191.913 189.527 192.153 191.074C192.393 192.631 192.606 194.156 192.774 195.783C192.868 196.697 192.404 197.538 191.737 197.662C191.07 197.786 190.453 197.146 190.358 196.232C190.356 196.21 190.354 196.187 190.352 196.165L190.35 196.129Z" fill="#1E3B78"/>
<path d="M187.573 147.309C187.524 147.567 187.493 147.709 187.493 147.709C169.217 160.379 158.747 133.464 158.747 133.464C158.747 133.464 163.781 131.205 164.624 130.068C162.108 126.596 156.235 124.245 156.235 124.245C155.42 107.224 144.034 88.6104 143.729 88.1148L143.723 88.1066C143.723 88.1066 159.621 88.6362 174.72 102.572C192.368 118.846 188.247 143.857 187.573 147.309Z" fill="#506EB1"/>
<path d="M187.495 147.713C169.218 160.384 158.747 133.467 158.747 133.467C158.747 133.467 163.783 131.208 164.626 130.071C162.109 126.598 156.235 124.247 156.235 124.247C155.42 107.225 144.034 88.6108 143.729 88.1148C178.471 120.166 187.495 147.713 187.495 147.713Z" fill="#222222"/>
<path d="M164.906 110.826C167.203 113.48 169.398 116.297 171.535 119.195C173.668 122.099 175.733 125.1 177.712 128.209C181.663 134.429 185.31 141.065 188.276 148.311C189.751 151.937 191.047 155.72 192.033 159.683C192.989 163.603 193.884 167.539 194.701 171.516C195.515 175.492 196.247 179.502 196.891 183.545C197.203 185.569 197.511 187.596 197.772 189.64C197.904 190.661 198.031 191.685 198.146 192.714C198.262 193.751 198.368 194.758 198.456 195.848C198.53 196.767 198.045 197.59 197.374 197.686C196.702 197.782 196.098 197.115 196.024 196.195C196.022 196.179 196.021 196.161 196.02 196.145L196.018 196.109C195.966 195.156 195.886 194.128 195.8 193.132C195.715 192.128 195.616 191.123 195.512 190.119C195.308 188.108 195.056 186.102 194.8 184.097C194.268 180.091 193.647 176.099 192.942 172.131C192.236 168.166 191.448 164.218 190.602 160.303C189.746 156.445 188.575 152.701 187.216 149.082C184.483 141.845 181.03 135.098 177.253 128.737C175.361 125.556 173.377 122.473 171.32 119.482C169.26 116.495 167.136 113.582 164.906 110.826Z" fill="#1E3B78"/>
<path d="M224.149 123.501C219.091 139.571 200.267 146.91 200.267 146.91C200.267 146.91 193.024 116.308 207.344 100.331C220.434 85.7143 221.093 80.2931 221.112 79.4738L221.112 79.3561C221.112 79.3561 229.213 107.431 224.149 123.501Z" fill="#506EB1"/>
<path d="M211.582 120.998C200.031 139.013 200.269 146.929 200.269 146.929C200.269 146.929 193.019 116.319 207.353 100.338C220.456 85.7167 221.116 80.2931 221.135 79.4736C221.121 81.4059 220.744 106.701 211.582 120.998Z" fill="#222222"/>
<path d="M218.269 103.923C217.736 105.86 217.228 107.811 216.638 109.722C216.052 111.634 215.382 113.5 214.637 115.311C213.888 117.118 213.062 118.863 212.207 120.58C211.767 121.426 211.332 122.279 210.879 123.112C210.419 123.937 209.976 124.782 209.502 125.591C208.571 127.232 207.609 128.837 206.637 130.431L205.162 132.801C204.68 133.576 204.242 134.362 203.852 135.219C203.077 136.927 202.472 138.783 201.987 140.699C201.498 142.614 201.133 144.595 200.831 146.592C200.245 150.597 199.945 154.687 199.803 158.787C199.661 162.889 199.682 167.007 199.802 171.12C199.925 175.233 200.152 179.343 200.462 183.442C200.774 187.531 201.16 191.647 201.656 195.661L201.659 195.689C201.772 196.602 201.321 197.463 200.652 197.611C199.984 197.76 199.35 197.14 199.237 196.228C199.235 196.211 199.233 196.188 199.231 196.172C198.818 191.983 198.536 187.849 198.319 183.677C198.107 179.512 197.98 175.341 197.957 171.165C197.938 166.99 198.018 162.81 198.267 158.642C198.514 154.475 198.922 150.313 199.625 146.223C199.987 144.182 200.412 142.155 200.971 140.186C201.525 138.217 202.205 136.3 203.071 134.527C203.503 133.643 204.005 132.803 204.524 132.026L206.05 129.736C207.055 128.197 208.052 126.646 209.018 125.06C209.51 124.277 209.97 123.46 210.448 122.661C210.918 121.855 211.37 121.03 211.827 120.21C212.718 118.547 213.581 116.854 214.369 115.096C215.153 113.335 215.865 111.512 216.496 109.635C217.131 107.76 217.688 105.834 218.269 103.923Z" fill="#1E3B78"/>
<path d="M259.276 111.121C258.97 115.414 258.01 119.368 256.53 123.007L256.53 123.018C249.735 139.807 232.214 149.8 219.799 154.407C219.799 154.407 218.959 155.547 223.165 142.951C223.191 142.883 223.216 142.814 223.241 142.745C227.557 130.265 244.161 122.469 244.161 122.469L244.157 127.063C245.837 125.93 248.359 120.21 248.359 120.21C251.716 119.092 259.276 111.121 259.276 111.121Z" fill="#506EB1"/>
<path d="M204.476 197.607C204.423 197.606 204.37 197.602 204.316 197.592C203.647 197.466 203.176 196.622 203.264 195.707C203.411 194.185 207.022 158.33 221.173 150.593C221.798 150.25 222.511 150.669 222.765 151.527C223.018 152.385 222.717 153.359 222.091 153.7C209.246 160.724 205.722 195.808 205.688 196.162C205.607 197.004 205.081 197.612 204.476 197.607Z" fill="#1E3B78"/>
<path d="M256.513 123.063C249.721 139.833 232.208 149.817 219.8 154.419C219.8 154.419 218.96 155.559 223.165 142.976C223.19 142.907 223.215 142.839 223.24 142.77C224.793 140.788 226.716 139.119 229.04 138.44C236.59 136.214 252.086 130.332 256.513 123.063Z" fill="#1E3B78"/>
<path d="M228.145 174.244C226.451 183.434 217.185 188.098 217.185 188.098C215.447 184.504 215.577 175.383 219.734 171.859C225.848 166.689 227.343 162.314 227.57 161.555C227.588 161.48 227.594 161.438 227.594 161.438C227.594 161.438 229.833 165.054 228.145 174.244Z" fill="#506EB1"/>
<path d="M227.574 161.555C227.359 162.724 226.98 169.795 221.76 177.483C217.881 183.195 217.185 188.103 217.185 188.103C215.446 184.508 215.577 175.386 219.736 171.861C225.852 166.691 227.347 162.314 227.574 161.555Z" fill="#222222"/>
<path d="M223.093 175.38C222.204 176.91 221.406 178.53 220.669 180.186C219.935 181.846 219.273 183.556 218.7 185.304C218.141 187.062 217.683 188.859 217.347 190.67C217.047 192.491 216.897 194.319 216.934 196.091L216.934 196.134C216.954 197.061 216.42 197.829 215.743 197.851C215.065 197.872 214.501 197.138 214.481 196.211C214.48 196.135 214.483 196.05 214.489 195.976C214.664 193.836 215.064 191.81 215.599 189.895C216.169 188 216.852 186.211 217.619 184.512C218.4 182.824 219.255 181.223 220.169 179.699C221.087 178.18 222.052 176.722 223.093 175.38Z" fill="#1E3B78"/>
<path d="M221.342 204.341L220.949 206.839L215.733 240.248C215.559 241.366 214.836 242.16 213.999 242.152L187.51 241.91C186.673 241.903 185.951 241.095 185.779 239.973L180.626 206.471L180.238 203.965L221.342 204.341Z" fill="#EF9C14"/>
<path d="M221.342 204.316L220.95 206.68L180.696 206.336L180.309 203.965L221.342 204.316Z" fill="#222222"/>
<path d="M200.421 196.091L200.002 196.087L178.397 195.89C177.682 195.883 177.164 196.8 177.36 197.727L178.415 202.723C178.547 203.346 178.969 203.778 179.45 203.783L199.995 203.97L200.414 203.974L222.137 204.172C222.613 204.177 223.032 203.762 223.17 203.151L224.291 198.175C224.5 197.247 223.983 196.306 223.261 196.299L200.421 196.091Z" fill="#EF9C14"/>
<path d="M131.69 464.534L114.289 464.372C112.737 464.357 111.48 462.627 111.482 460.507L111.489 451.185L134.513 451.4L134.505 460.722C134.503 462.842 133.243 464.549 131.69 464.534Z" fill="#001C45"/>
<path d="M426.37 465.924L408.969 465.761C407.416 465.747 406.159 464.017 406.161 461.897L406.169 452.575L429.192 452.79L429.184 462.112C429.182 464.232 427.922 465.939 426.37 465.924Z" fill="#001C45"/>
<path d="M456.353 303.457L456.231 443.291C456.226 448.593 453.069 452.86 449.175 452.825L91.8152 449.58C87.9219 449.544 84.7674 445.22 84.772 439.918L84.8939 300.084L111.659 300.327L111.586 384.197C111.586 384.249 111.586 384.307 111.59 384.358C111.594 384.531 111.606 384.698 111.615 384.865C111.627 385.073 111.64 385.275 111.665 385.471C111.69 385.73 111.728 385.99 111.77 386.237C111.812 386.492 111.867 386.734 111.926 386.981C112.044 387.478 112.187 387.946 112.351 388.396C113.014 390.216 114.099 391.699 115.425 392.615C115.759 392.848 116.101 393.048 116.465 393.212C116.647 393.294 116.824 393.365 117.01 393.425C117.192 393.484 117.378 393.537 117.572 393.579C117.716 393.609 117.864 393.634 118.016 393.652C118.139 393.665 118.261 393.683 118.384 393.684C118.422 393.696 118.464 393.696 118.502 393.696L422.459 396.456C426.353 396.492 429.515 392.22 429.519 386.918L429.592 303.214L456.353 303.457Z" fill="#8087C6"/>
<path d="M429.63 301.6L416.373 283.358L412.908 278.589L412.159 277.559C411.897 277.198 412.083 276.586 412.455 276.589L431.954 276.767C432.2 276.769 432.435 276.881 432.628 277.08L456.4 301.844L429.63 301.6Z" fill="#CFD2E7"/>
<path d="M129.644 276.193L125.252 282.141L125.092 282.359C125.092 282.359 112.5 299.415 111.964 300.142L85.1936 299.898L109.089 275.488C109.228 275.343 109.405 275.264 109.587 275.266L129.418 275.446C129.703 275.449 129.845 275.92 129.644 276.193Z" fill="#CFD2E7"/>
<path d="M421.689 233.473L417.198 277.312L416.512 284.01L414.882 299.951L411.54 333.157L130.032 330.031L125.145 281.369L124.472 274.659L120.057 230.74C119.893 229.078 120.279 227.517 121.008 226.359C121.758 225.172 122.873 224.418 124.135 224.429L417.621 227.089C420.115 227.112 422.029 230.12 421.689 233.473Z" fill="#B3B9DA"/>
<path d="M111.759 361.996L111.813 300.192L125.315 281.92C126.921 296.651 129.596 322.427 130.128 331.261C128.506 334.189 111.759 361.996 111.759 361.996Z" fill="#003379"/>
<path d="M429.588 363.575L429.642 301.772L416.172 283.255C414.541 297.956 411.821 323.682 411.274 332.507C412.89 335.464 429.588 363.575 429.588 363.575Z" fill="#003379"/>
<path d="M422.783 399.187L118.583 396.545C114.76 396.512 111.666 392.379 111.671 387.313L111.691 365.292L429.432 368.053L429.411 390.472C429.406 395.317 426.439 399.219 422.783 399.187Z" fill="#222222"/>
<path d="M422.792 395.968L118.591 393.325C114.769 393.292 111.675 389.159 111.68 384.093L111.7 362.073L429.441 364.833L429.42 387.252C429.415 392.097 426.448 395.999 422.792 395.968Z" fill="#A2A9D5"/>
<path d="M206.658 327.967C203.563 338.136 164.772 334.297 156.98 335.492C146.775 337.056 127.045 351.774 124.557 331.634C123.089 319.752 125.578 305.14 125.196 292.966C124.777 279.661 123.764 266.253 121.426 253.293C120.324 247.189 114.47 231.66 117.231 225.501C120.254 218.755 132.032 222.906 136.57 223.059C153.524 223.63 169.62 216.791 186.358 214.702C200.601 212.924 201.315 220.285 201.664 238.523C201.906 251.187 201.304 263.857 201.269 276.519C201.243 286.037 200.792 296.236 202.746 305.5C204.203 312.405 208.952 320.39 206.658 327.967Z" fill="white"/>
<path d="M136.442 334.952C136.384 334.951 136.325 334.936 136.268 334.905C136.024 334.772 135.905 334.398 136.001 334.068C143.951 306.993 127.682 239.082 127.517 238.399C127.435 238.061 127.571 237.698 127.82 237.589C128.069 237.48 128.338 237.666 128.42 238.004C128.461 238.176 132.609 255.4 135.711 275.777C139.886 303.208 140.281 322.982 136.885 334.549C136.811 334.801 136.632 334.953 136.442 334.952Z" fill="#F1B42F"/>
<path d="M155.523 320.253C155.495 320.253 155.467 320.249 155.439 320.242C140.272 316.415 131.385 318.741 131.297 318.765C131.043 318.832 130.796 318.615 130.743 318.277C130.69 317.939 130.852 317.609 131.105 317.54C131.195 317.516 140.262 315.142 155.607 319.013C155.862 319.077 156.03 319.404 155.983 319.744C155.942 320.045 155.745 320.255 155.523 320.253Z" fill="#F1B42F"/>
<path d="M148.062 313.127C148.006 313.127 147.949 313.113 147.894 313.083C141.963 309.923 136.421 309.834 136.366 309.833C136.107 309.831 135.898 309.544 135.898 309.192C135.899 308.841 136.108 308.558 136.367 308.56C136.6 308.562 142.139 308.652 148.231 311.898C148.472 312.027 148.592 312.397 148.499 312.723C148.427 312.976 148.25 313.129 148.062 313.127Z" fill="#F1B42F"/>
<path d="M339.347 328.196C342.425 338.422 381.222 335.292 389.011 336.629C399.214 338.38 418.919 353.459 421.441 333.364C422.929 321.51 420.466 306.852 420.869 294.686C421.31 281.389 422.346 267.999 424.707 255.082C425.819 248.999 431.699 233.577 428.949 227.368C425.937 220.566 414.153 224.501 409.614 224.571C392.66 224.832 376.576 217.699 359.842 215.304C345.602 213.266 344.875 220.613 344.495 238.845C344.231 251.504 344.811 264.185 344.825 276.847C344.834 286.366 345.268 296.572 343.298 305.8C341.829 312.679 337.066 320.577 339.347 328.196Z" fill="#EF9C14"/>
<path d="M409.518 336.213C409.329 336.211 409.15 336.055 409.076 335.802C405.701 324.174 406.131 304.408 410.356 277.052C413.493 256.731 417.672 239.582 417.713 239.411C417.796 239.074 418.065 238.892 418.314 239.007C418.563 239.12 418.698 239.485 418.616 239.822C418.45 240.502 402.061 308.121 409.961 335.336C410.057 335.668 409.937 336.041 409.693 336.169C409.636 336.199 409.576 336.213 409.518 336.213Z" fill="#E07602"/>
<path d="M390.347 321.251C390.126 321.249 389.929 321.035 389.888 320.733C389.842 320.393 390.011 320.069 390.266 320.009C405.618 316.421 414.68 318.963 414.77 318.988C415.023 319.062 415.184 319.395 415.131 319.732C415.078 320.069 414.83 320.282 414.577 320.211C414.489 320.185 405.585 317.699 390.432 321.242C390.403 321.248 390.375 321.251 390.347 321.251Z" fill="#E07602"/>
<path d="M397.85 314.249C397.662 314.247 397.485 314.091 397.414 313.837C397.321 313.508 397.442 313.141 397.683 313.017C403.78 309.887 409.32 309.903 409.553 309.905C409.811 309.907 410.02 310.195 410.02 310.546C410.02 310.897 409.81 311.18 409.552 311.178C409.497 311.177 403.946 311.165 398.018 314.208C397.963 314.237 397.906 314.249 397.85 314.249Z" fill="#E07602"/>
<g style="mix-blend-mode:overlay">
<path d="M288.459 451.941L267.112 451.746C269.238 435.299 272.312 411.413 274.248 395.312C275.438 385.458 276.197 378.522 276.054 377.993C272.579 376.373 253.468 375.7 245.058 376.122C235.32 376.612 239.564 365.059 227.287 362.628C223.973 361.972 195.982 331.766 253.126 349.097C298.207 362.769 308.48 345.415 310.09 349.383C311.21 352.146 289.189 450.139 288.459 451.941Z" fill="#2C2C2C"/>
</g>
<path d="M309.283 215.103C309.283 215.103 298.86 215.484 276.171 204.629C254.39 212.699 242.922 214.972 242.922 214.972C237.711 238.334 245.841 321.401 245.841 321.401L306.299 321.954C306.299 321.954 314.454 238.56 309.283 215.103Z" fill="#FCBE0B"/>
<path d="M300.316 321.012C300.316 321.012 326.016 307.465 326.374 295.587C326.374 295.587 319.445 279.365 303.811 293.479C303.811 293.479 297.889 304.282 300.316 321.012Z" fill="#F8C59D"/>
<path d="M250.458 327.146C250.458 327.146 228.335 315.868 225.291 305.392C225.291 305.392 226.451 273.46 248.109 293.301C248.109 293.301 252.957 310.466 250.458 327.146Z" fill="#F8C59D"/>
<path d="M243.035 214.872C243.035 214.872 252.523 232.959 249.433 260.558L248.243 293.229C248.243 293.229 229.64 284.029 225.33 305.339C225.33 305.339 225.495 290.899 228.579 270.415C231.662 249.932 233.65 227.843 243.035 214.872Z" fill="#FCBE0B"/>
<path d="M309.154 215.042C309.154 215.042 299.878 233.05 302.917 260.702L303.858 293.388C303.858 293.388 318.85 288.763 326.513 295.5C326.513 295.5 326.785 291.474 323.739 270.937C320.694 250.4 318.904 225.899 309.154 215.042Z" fill="#FCBE0B"/>
<path d="M263.642 205.456C263.642 205.456 261.24 232.582 276.236 232.922C291.64 233.272 288.266 206.099 288.266 206.099C288.266 206.099 275.155 201.059 263.642 205.456Z" fill="#F99CC1"/>
<path d="M326.212 289.199C326.116 289.198 326.02 289.156 325.94 289.069C325.874 288.999 319.31 282.273 304.164 288.033C303.931 288.123 303.687 287.938 303.619 287.622C303.552 287.306 303.687 286.978 303.921 286.889C319.553 280.944 326.21 287.844 326.486 288.14C326.677 288.346 326.709 288.72 326.558 288.976C326.471 289.124 326.342 289.2 326.212 289.199Z" fill="#E07602"/>
<path d="M225.43 291.002C225.321 291.001 225.212 290.945 225.127 290.834C224.95 290.605 224.943 290.227 225.111 289.99C225.388 289.598 232.067 280.462 247.73 286.751C247.964 286.845 248.098 287.178 248.031 287.494C247.963 287.81 247.719 287.991 247.485 287.897C232.331 281.813 225.813 290.728 225.749 290.819C225.663 290.942 225.546 291.003 225.43 291.002Z" fill="#E07602"/>
<path d="M263.642 205.456C263.642 205.456 261.24 232.582 276.236 232.922C291.64 233.272 288.266 206.099 288.266 206.099C288.266 206.099 275.155 201.059 263.642 205.456Z" fill="#E1A67C"/>
<path d="M307.174 269.975L302.021 310.953L301.849 312.55C301.723 313.728 300.924 314.602 299.985 314.593L251.457 314.15C250.518 314.142 249.72 313.253 249.596 312.073L249.427 310.473L244.345 269.401C244.197 267.978 245.073 266.72 246.21 266.73L305.314 267.27C306.451 267.28 307.324 268.555 307.174 269.975Z" fill="white"/>
<path d="M281.724 277.871L269.839 277.759C269.085 277.752 268.475 276.918 268.476 275.896L268.476 275.883C268.476 274.862 269.088 274.04 269.842 274.047L281.727 274.159C282.481 274.166 283.092 275 283.091 276.022L283.091 276.034C283.09 277.056 282.478 277.878 281.724 277.871Z" fill="#AEC8EA"/>
<path d="M288.058 359.867C258.354 359.874 248.305 352.676 220.938 325.424C219.999 312.784 258.074 311.76 258.074 311.76L295.95 332.095C295.95 332.095 293.52 359.866 288.058 359.867Z" fill="#13172C"/>
<path d="M293.343 436.376L290.712 453.036L288.564 466.644C288.262 473.62 286.276 477.382 283.218 477.111L281.196 476.931C278.142 476.66 275.578 472.353 275.879 465.377L277.895 451.325L280.209 435.213L293.343 436.376Z" fill="#F99CC1"/>
<path d="M293.343 436.366L290.718 452.994L277.933 451.284L280.242 435.204L293.343 436.366Z" fill="#515151"/>
<path d="M298.686 484.237C298.684 484.242 298.683 484.247 298.681 484.251C298.424 485.029 297.839 485.505 297.212 485.499L281.313 485.343C279.926 485.329 278.609 484.476 277.722 483.015C276.618 481.196 275.621 479.833 274.924 478.23C274.742 477.82 274.632 476.256 274.657 474.292C274.684 475.632 274.786 476.634 274.935 476.955C275.676 478.587 276.744 479.973 277.921 481.843C278.805 483.247 280.095 484.055 281.449 484.068L298.686 484.237Z" fill="#13172C"/>
<path d="M298.716 484.219L281.459 484.052C280.104 484.039 278.812 483.228 277.927 481.817C276.748 479.937 275.679 478.545 274.937 476.904C274.788 476.582 274.686 475.575 274.659 474.228C274.664 474.196 274.664 474.157 274.659 474.132C274.709 471.285 275.046 467.641 275.869 465.405C279.843 467.86 280.904 465.646 281.014 463.851C281.019 463.743 281.023 463.634 281.023 463.531C281.024 462.742 281.049 461.492 281.383 460.585C281.515 460.208 281.702 459.896 281.965 459.693C283.216 458.718 285.715 457.806 290.398 458.492C293.002 458.877 289.236 463.001 295.067 472.002C296.933 474.886 298.598 477.069 298.947 479.092C299.324 481.314 299.135 482.928 298.716 484.219Z" fill="#132952"/>
<path d="M284.74 470.25C284.492 470.247 284.272 470.002 284.231 469.66C284.185 469.279 284.375 468.921 284.657 468.861C284.811 468.827 288.484 468.054 292.262 468.522C292.547 468.558 292.757 468.898 292.733 469.282C292.708 469.666 292.458 469.952 292.174 469.914C288.524 469.462 284.861 470.233 284.825 470.241C284.796 470.247 284.768 470.25 284.74 470.25Z" fill="white"/>
<path d="M285.742 472.776C285.493 472.774 285.274 472.529 285.233 472.186C285.187 471.805 285.377 471.448 285.659 471.387C285.814 471.354 289.486 470.579 293.264 471.049C293.549 471.085 293.759 471.425 293.735 471.809C293.71 472.193 293.462 472.478 293.176 472.441C289.524 471.988 285.863 472.759 285.827 472.768C285.798 472.773 285.77 472.776 285.742 472.776Z" fill="white"/>
<path d="M315.362 353.945C312.818 371.598 306.412 403.677 303.769 414.538C300.665 427.283 297.13 441.686 295.864 446.841C295.582 447.989 294.757 448.713 293.874 448.583C291.226 448.194 285.232 447.314 277.04 446.111C275.9 445.943 275.121 444.444 275.384 442.921C277.187 432.47 283.356 395.939 285.327 373.933C285.51 371.911 285.658 370.017 285.76 368.27C285.76 368.27 288.597 331.02 303.121 325.439C310.76 322.504 316.128 334.667 316.423 343.265C316.488 345.151 316.081 348.976 315.362 353.945Z" fill="#1E3B78"/>
<g style="mix-blend-mode:overlay">
<path d="M315.365 353.865C304.651 354.689 292.686 365.847 285.415 373.827C285.597 371.807 285.745 369.916 285.847 368.171C285.847 368.171 288.676 330.969 303.159 325.394C310.776 322.463 316.128 334.611 316.423 343.198C316.488 345.082 316.082 348.902 315.365 353.865Z" fill="#515151"/>
</g>
<path d="M297.626 439.478C297.611 439.478 297.595 439.477 297.579 439.474L276.627 436.36C276.375 436.322 276.193 436.018 276.219 435.679C276.245 435.34 276.472 435.098 276.722 435.134L297.674 438.248C297.925 438.285 298.108 438.59 298.082 438.929C298.057 439.246 297.858 439.48 297.626 439.478Z" fill="#506EB1"/>
<path d="M291.653 341.207C291.611 341.206 291.569 341.199 291.527 341.182C291.282 341.085 291.139 340.736 291.209 340.403L297.157 311.89C297.227 311.556 297.482 311.365 297.727 311.461C297.972 311.558 298.114 311.907 298.045 312.241L292.097 340.753C292.039 341.03 291.854 341.209 291.653 341.207Z" fill="#506EB1"/>
<path d="M249.485 261.166C249.48 261.166 249.474 261.165 249.469 261.165C249.222 261.151 249.03 260.868 249.039 260.534C249.562 241.423 244.229 217.084 244.175 216.84C244.103 216.519 244.238 216.182 244.474 216.087C244.711 215.993 244.96 216.176 245.031 216.498C245.085 216.743 250.461 241.271 249.932 260.585C249.924 260.912 249.725 261.168 249.485 261.166Z" fill="#E07602"/>
<path d="M248.039 260.683C247.857 260.681 247.687 260.526 247.623 260.278C245.986 253.97 244.352 252.482 244.336 252.468C244.132 252.289 244.067 251.917 244.195 251.636C244.322 251.355 244.589 251.266 244.797 251.438C244.873 251.502 246.69 253.073 248.456 259.879C248.538 260.194 248.418 260.539 248.188 260.649C248.139 260.673 248.089 260.684 248.039 260.683Z" fill="#E07602"/>
<path d="M302.435 261.394C302.196 261.392 301.998 261.134 301.99 260.806C301.496 241.483 306.914 217.052 306.969 216.808C307.041 216.488 307.29 216.308 307.527 216.408C307.763 216.506 307.896 216.845 307.825 217.165C307.77 217.408 302.395 241.651 302.883 260.771C302.892 261.105 302.698 261.385 302.452 261.394C302.446 261.394 302.441 261.394 302.435 261.394Z" fill="#E07602"/>
<path d="M304.501 260.933C304.452 260.933 304.401 260.921 304.352 260.897C304.122 260.782 304.003 260.434 304.085 260.121C305.862 253.349 307.682 251.811 307.758 251.749C307.968 251.579 308.24 251.675 308.365 251.963C308.49 252.249 308.423 252.616 308.217 252.788C308.182 252.818 306.556 254.294 304.917 260.535C304.853 260.782 304.683 260.935 304.501 260.933Z" fill="#E07602"/>
<path d="M351.279 156.759C335.607 156.615 322.871 139.042 322.89 117.584C322.909 96.1273 335.675 78.7879 351.348 78.9319C367.02 79.0759 379.756 96.6498 379.737 118.107C379.718 139.564 366.952 156.903 351.279 156.759ZM351.346 80.6752C336.375 80.5376 324.181 97.1003 324.163 117.596C324.145 138.092 336.31 154.879 351.28 155.016C366.251 155.154 378.445 138.591 378.463 118.095C378.481 97.5993 366.316 80.8128 351.346 80.6752Z" fill="#506EB1"/>
<path d="M351.371 96.9121C351.175 96.9103 351.015 96.6947 351.015 96.4304L351.022 88.7685C351.022 88.5042 351.182 88.2915 351.379 88.2933C351.576 88.2951 351.735 88.5107 351.735 88.775L351.728 96.4369C351.728 96.7012 351.568 96.9139 351.371 96.9121Z" fill="#1E3B78"/>
<path d="M351.231 147.525C351.034 147.523 350.874 147.308 350.875 147.043L350.882 139.382C350.882 139.117 351.042 138.904 351.238 138.906C351.435 138.908 351.595 139.124 351.594 139.388L351.587 147.049C351.587 147.314 351.427 147.527 351.231 147.525Z" fill="#1E3B78"/>
<path d="M372.466 118.171L366.899 118.119C366.707 118.117 366.552 117.907 366.552 117.649C366.552 117.391 366.708 117.184 366.9 117.186L372.467 117.238C372.659 117.239 372.815 117.45 372.815 117.707C372.814 117.965 372.659 118.173 372.466 118.171Z" fill="#1E3B78"/>
<path d="M335.712 117.997L330.145 117.946C329.953 117.944 329.797 117.733 329.798 117.476C329.798 117.218 329.954 117.011 330.146 117.013L335.713 117.064C335.905 117.066 336.061 117.276 336.061 117.534C336.06 117.792 335.904 117.999 335.712 117.997Z" fill="#1E3B78"/>
<path d="M350.724 118.775L350.254 117.486L356.954 110.675C357.158 110.463 357.45 110.517 357.606 110.798C357.762 111.078 357.724 111.476 357.52 111.689L350.724 118.775Z" fill="#1E3B78"/>
<path d="M322.929 337.508L322.457 339.575C321.739 342.698 318.518 343.261 313.541 340.954L304.59 337.126L291.736 331.628L294.81 318.205L306.174 323.326L316.41 327.938C321.387 330.242 323.644 334.385 322.929 337.508Z" fill="#F8C59D"/>
<path d="M306.301 323.889L304.716 339.052L291.798 333.013L294.881 318.264L306.301 323.889Z" fill="#515151"/>
<path d="M322.283 360.073C322.287 360.074 322.29 360.074 322.295 360.075C322.943 360.119 323.472 359.635 323.661 358.883L328.015 341.526C328.695 338.818 328.367 335.639 327.118 332.811C326.478 331.362 325.918 330.082 325.214 328.937C324.97 328.533 323.859 327.693 322.413 326.834C323.386 327.473 324.088 328.048 324.277 328.372C325.007 329.6 325.576 330.987 326.245 332.565C327.423 335.342 327.714 338.429 327.052 341.068L322.283 360.073Z" fill="#13172C"/>
<path d="M322.5 360.337L327.12 342.686C327.762 340.235 327.478 337.368 326.335 334.789C325.686 333.324 325.133 332.036 324.424 330.895C324.241 330.595 323.559 330.061 322.616 329.468C322.592 329.46 322.565 329.444 322.548 329.428C320.521 328.294 317.845 327.143 316.019 327.121C316.569 332.557 314.688 332.808 313.387 332.179C313.308 332.139 313.23 332.099 313.157 332.056C312.6 331.727 311.709 331.232 310.968 331.223C310.663 331.212 310.386 331.289 310.164 331.496C309.102 332.477 307.712 334.867 306.8 340.351C306.295 343.4 310.333 340.947 314.954 351.18C316.436 354.456 317.482 357.216 318.808 358.449C320.266 359.797 321.463 360.261 322.5 360.337Z" fill="#132952"/>
<path d="M313.864 348.09C313.826 348.082 313.788 348.068 313.749 348.049C313.464 347.907 313.281 347.511 313.342 347.164C314.144 342.559 315.813 338.628 315.883 338.463C316.012 338.161 316.329 338.099 316.59 338.322C316.853 338.545 316.961 338.97 316.832 339.271C316.815 339.31 315.15 343.236 314.375 347.679C314.323 347.979 314.106 348.144 313.864 348.09Z" fill="white"/>
<path d="M315.272 350.217C315.234 350.209 315.196 350.195 315.157 350.176C314.872 350.034 314.689 349.637 314.75 349.291C315.552 344.686 317.221 340.755 317.292 340.59C317.42 340.289 317.737 340.226 317.999 340.449C318.261 340.672 318.369 341.097 318.24 341.399C318.224 341.438 316.558 345.363 315.784 349.806C315.732 350.106 315.515 350.271 315.272 350.217Z" fill="white"/>
<path d="M213.75 299.633C208.797 304.923 214.902 314.378 220.579 318.098C226.256 321.819 262.837 333.384 273.533 336.126C283.244 338.616 294.264 341.706 298.337 342.858C299.276 343.123 300.144 342.691 300.4 341.83C301.156 339.287 302.851 333.657 305.204 326.259C305.541 325.199 304.819 323.905 303.663 323.504C295.134 320.543 263.797 309.505 249.372 302.198C249.372 302.198 223.165 289.577 213.75 299.633Z" fill="#1E3B78"/>
<path d="M288.951 191.677C288.951 191.677 291.328 191.288 291.294 194.492C291.241 199.657 287.286 205.152 287.286 205.152C287.286 205.152 287.544 196.568 288.951 191.677Z" fill="#F8C59D"/>
<path d="M288.476 194.601C288.476 194.601 290.775 192.265 290.362 195.491C289.694 200.703 287.64 201.948 287.64 201.948L288.476 194.601Z" fill="#E1A67C"/>
<path d="M261.699 193.363C261.699 193.363 260.943 193.51 260.152 194.18C259.448 194.775 258.699 195.797 258.684 197.303C258.63 202.461 262.477 206.101 262.477 206.101C262.477 206.101 263.006 197.605 261.699 193.363Z" fill="#F8C59D"/>
<path d="M261.477 195.696C261.477 195.696 259.205 194.896 259.553 197.945C260.114 202.871 262.158 203.139 262.158 203.139L261.477 195.696Z" fill="#E1A67C"/>
<path d="M261.294 195.381C261.294 195.381 260.026 204.801 262.517 213.024C263.788 217.22 267.157 222.093 270.219 224.039C278.926 229.571 284.883 214.275 287.796 206.82C289.88 201.485 289.954 188.565 289.954 188.565C289.954 188.565 274.193 178.267 261.294 195.381Z" fill="#F8C59D"/>
<path d="M258.86 193.981C257.983 186.707 257.387 183.94 258.661 180.234C259.396 178.096 260.839 176.192 261.449 175.789C261.417 175.199 260.714 175.038 259.427 175.33C267.739 163.194 287.294 162.293 287.32 168.46C288.459 169.165 290.182 170.926 290.736 172.15C292.869 176.86 290.985 181.551 290.067 187.228C286.61 191.216 281.835 185.997 280.269 186.353C281.311 188.48 282.014 189.108 282.709 190.527C278.434 191.499 275.24 191.043 271.7 189.878C260.897 186.323 262.735 197.04 258.86 193.981Z" fill="#13172C"/>
<path d="M264.589 160.169L276.896 166.494L266.349 164.389C266.349 164.389 266.034 161.083 264.589 160.169Z" fill="#13172C"/>
<path d="M282.545 204.47C282.534 205.399 281.958 206.288 281.258 206.454C280.559 206.62 280 206 280.01 205.071C280.021 204.142 280.597 203.254 281.297 203.088C281.997 202.922 282.555 203.541 282.545 204.47Z" fill="#13172C"/>
<path d="M270.438 205.261C270.427 206.19 269.851 207.078 269.151 207.244C268.451 207.41 267.893 206.791 267.903 205.861C267.914 204.932 268.49 204.044 269.189 203.878C269.889 203.712 270.448 204.331 270.438 205.261Z" fill="#13172C"/>
<path d="M278.853 199.083L279.728 198.754C280.021 198.65 280.325 198.576 280.62 198.487C280.92 198.409 281.226 198.361 281.526 198.304L281.985 198.265L282.213 198.248L282.441 198.257C283.044 198.266 283.653 198.402 284.137 198.742C284.371 198.919 284.587 199.12 284.746 199.373C284.907 199.63 285.023 199.883 285.082 200.241C285.113 200.428 284.984 200.64 284.794 200.713C284.623 200.78 284.46 200.712 284.407 200.561L284.388 200.507C284.362 200.435 284.315 200.316 284.26 200.229C284.204 200.136 284.145 200.044 284.07 199.968C283.935 199.802 283.75 199.69 283.568 199.588C283.187 199.399 282.721 199.358 282.234 199.415L282.054 199.431L281.866 199.47L281.494 199.547C281.239 199.631 280.989 199.699 280.736 199.797C280.481 199.908 280.229 199.999 279.976 200.123L279.221 200.505L279.171 200.529C278.766 200.735 278.346 200.586 278.232 200.198C278.119 199.81 278.355 199.329 278.761 199.123C278.79 199.109 278.824 199.094 278.853 199.083Z" fill="#13172C"/>
<path d="M271.133 200.248L270.385 200.292C270.136 200.312 269.889 200.354 269.638 200.383C269.39 200.423 269.144 200.482 268.895 200.532C268.655 200.61 268.402 200.66 268.168 200.76C267.685 200.927 267.226 201.172 266.815 201.482C266.71 201.558 266.621 201.648 266.52 201.731C266.434 201.823 266.335 201.91 266.258 202.009C266.175 202.106 266.102 202.208 266.033 202.311C266.003 202.363 265.966 202.416 265.942 202.467C265.915 202.514 265.886 202.581 265.876 202.599L265.818 202.703C265.714 202.887 265.501 202.979 265.343 202.908C265.214 202.851 265.161 202.704 265.2 202.553C265.257 202.336 265.321 202.203 265.398 202.038C265.477 201.884 265.563 201.733 265.662 201.592C265.755 201.444 265.868 201.317 265.974 201.181C266.09 201.06 266.204 200.928 266.326 200.813C266.817 200.35 267.37 199.981 267.929 199.708C268.21 199.552 268.492 199.458 268.776 199.33C269.058 199.235 269.343 199.13 269.626 199.048C269.907 198.978 270.193 198.894 270.474 198.834L271.316 198.673C271.737 198.593 272.068 198.877 272.056 199.308C272.044 199.738 271.693 200.153 271.272 200.233C271.241 200.239 271.21 200.243 271.179 200.245L271.133 200.248Z" fill="#13172C"/>
<path d="M275.283 214.841C273.86 215.119 272.954 214.448 272.941 214.438C272.771 214.308 272.774 214.043 272.946 213.846C273.119 213.65 273.395 213.595 273.565 213.724C273.631 213.773 275.091 214.814 277.209 212.968C277.408 212.796 277.681 212.786 277.819 212.946C277.958 213.106 277.91 213.376 277.712 213.549C276.807 214.337 275.982 214.704 275.283 214.841Z" fill="#E0675A"/>
<path d="M276.244 219.119C275.634 219.23 275.016 219.308 274.438 219.381C273.912 219.448 273.416 219.511 272.985 219.589C272.792 219.624 272.637 219.514 272.638 219.342C272.64 219.171 272.797 219.004 272.99 218.969C273.443 218.887 273.95 218.823 274.487 218.755C276.323 218.521 276.903 218.376 277.657 218.064C277.844 217.987 278.885 217.139 279.05 217.197C279.215 217.255 279.189 217.546 279.069 217.703C278.574 218.348 277.773 218.842 276.244 219.119Z" fill="#E04B3A"/>
<path d="M281.453 215.736C281.341 215.761 281.238 215.707 281.202 215.592C280.922 214.692 279.699 214.957 279.687 214.96C279.54 214.994 279.422 214.889 279.424 214.726C279.426 214.564 279.547 214.405 279.694 214.372C279.76 214.357 281.314 214.021 281.711 215.291C281.755 215.434 281.678 215.619 281.538 215.701C281.51 215.718 281.481 215.729 281.453 215.736Z" fill="#E1A67C"/>
<path d="M350.519 117.169L353.568 99.6636C353.625 99.3361 354.099 99.2766 354.626 99.5308C355.152 99.7846 355.534 100.256 355.477 100.584L352.971 114.969L352.425 118.102L350.519 117.169Z" fill="#1E3B78"/>
</svg>
